:version 1.10
:name ASF
:units
  mass 1
  length 1
  angle deg
:documentation
  ASF file generated by Kaydara
:root
  axis xyz
  order  tx ty tz rx ry rz
  position 0 0 0
  orientation 0 0 0
:bonedata
  begin
    id 1
    name lfemurDummy
    direction 0.61522 -0.761478 0.204097
    length 5.68318
    axis 0 -0 0 xyz
  end
  begin
    id 2
    name lfemur
    direction 0.34202 -0.939693 -5.84747e-008
    length 16.9147
    axis 0 -0 20 xyz
    dof rx ry rz
    limits( -inf , inf )
( -inf , inf )
( -inf , inf )

  end
  begin
    id 3
    name ltibia
    direction 0.34202 -0.939693 1.20839e-009
    length 18.0532
    axis 0 -0 20 xyz
    dof rz ry rx
    limits( -inf , inf )
( -inf , inf )
( -inf , inf )

  end
  begin
    id 4
    name lfoot
    direction 0.0841971 -0.23133 0.969225
    length 5.23822
    axis -90 7.62852e-016 20 xyz
    dof ry rx rz
    limits( -inf , inf )
( -inf , inf )
( -inf , inf )

  end
  begin
    id 5
    name ltoes
    direction 0 0 0
    length 0
    axis 0 0 0 xyz
    dof rz ry rx
    limits( -inf , inf )
( -inf , inf )
( -inf , inf )

  end
  begin
    id 6
    name rfemurDummy
    direction -0.625247 -0.75382 0.202044
    length 5.74091
    axis 0 -0 0 xyz
  end
  begin
    id 7
    name rfemur
    direction -0.34202 -0.939693 -1.47013e-008
    length 16.4922
    axis 0 -0 -20 xyz
    dof rx ry rz
    limits( -inf , inf )
( -inf , inf )
( -inf , inf )

  end
  begin
    id 8
    name rtibia
    direction -0.34202 -0.939693 -7.74345e-010
    length 18.2421
    axis 0 -0 -20 xyz
    dof rz ry rx
    limits( -inf , inf )
( -inf , inf )
( -inf , inf )

  end
  begin
    id 9
    name rfoot
    direction -0.124331 -0.341598 0.931586
    length 5.45787
    axis -90 -7.62852e-016 -20 xyz
    dof ry rx rz
    limits( -inf , inf )
( -inf , inf )
( -inf , inf )

  end
  begin
    id 10
    name rtoes
    direction 0 0 0
    length 0
    axis 0 0 0 xyz
    dof rz ry rx
    limits( -inf , inf )
( -inf , inf )
( -inf , inf )

  end
  begin
    id 11
    name lowerbackDummy
    direction 0 0 0
    length 0
    axis 0 -0 0 xyz
  end
  begin
    id 12
    name lowerback
    direction -0.0218484 0.994884 -0.0986304
    length 4.45607
    axis 0 -0 0 xyz
    dof rx ry rz
    limits( -inf , inf )
( -inf , inf )
( -inf , inf )

  end
  begin
    id 13
    name upperback
    direction -0.00973057 0.999717 -0.0217111
    length 4.47449
    axis 0 -0 0 xyz
    dof rx ry rz
    limits( -inf , inf )
( -inf , inf )
( -inf , inf )

  end
  begin
    id 14
    name thorax
    direction -0.000928171 0.999699 0.0245198
    length 4.50973
    axis 0 -0 0 xyz
    dof rx ry rz
    limits( -inf , inf )
( -inf , inf )
( -inf , inf )

  end
  begin
    id 15
    name rclavicle
    direction -0.9009 0.425937 -0.0834055
    length 7.28587
    axis 0 -0 0 xyz
    dof rx ry rz
    limits( -inf , inf )
( -inf , inf )
( -inf , inf )

  end
  begin
    id 16
    name rhumerus
    direction -1 -2.23604e-007 -1.42637e-007
    length 13.5704
    axis 180 30 90 xyz
    dof rx ry rz
    limits( -inf , inf )
( -inf , inf )
( -inf , inf )

  end
  begin
    id 17
    name rradius
    direction -1 5.68281e-008 -4.4952e-007
    length 8.06782
    axis 180 30 90 xyz
    dof rz ry rx
    limits( -inf , inf )
( -inf , inf )
( -inf , inf )

  end
  begin
    id 18
    name rwrist
    direction -1 1.51393e-007 1.38143e-007
    length 4.03391
    axis -90 -90 0 xyz
    dof rz rx ry
    limits( -inf , inf )
( -inf , inf )
( -inf , inf )

  end
  begin
    id 19
    name rthumb
    direction 0 0 0
    length 0
    axis 0 0 0 xyz
    dof ry rx rz
    limits( -inf , inf )
( -inf , inf )
( -inf , inf )

  end
  begin
    id 20
    name rhand
    direction -1 -3.34077e-007 -5.59631e-007
    length 1.29744
    axis -90 -90 0 xyz
    dof ry rx rz
    limits( -inf , inf )
( -inf , inf )
( -inf , inf )

  end
  begin
    id 21
    name rfingers
    direction 0 0 0
    length 0
    axis 0 0 0 xyz
    dof rz ry rx
    limits( -inf , inf )
( -inf , inf )
( -inf , inf )

  end
  begin
    id 22
    name lclavicle
    direction 0.940017 0.332249 -0.0773232
    length 8.29589
    axis 0 -0 0 xyz
    dof rx ry rz
    limits( -inf , inf )
( -inf , inf )
( -inf , inf )

  end
  begin
    id 23
    name lhumerus
    direction 1 7.41158e-008 -1.44768e-008
    length 12.0042
    axis 180 -30 -90 xyz
    dof rx ry rz
    limits( -inf , inf )
( -inf , inf )
( -inf , inf )

  end
  begin
    id 24
    name lradius
    direction 1 -1.32972e-007 3.10821e-007
    length 8.1902
    axis 180 -30 -90 xyz
    dof rz ry rx
    limits( -inf , inf )
( -inf , inf )
( -inf , inf )

  end
  begin
    id 25
    name lwrist
    direction 1 3.08957e-007 4.01394e-007
    length 4.09509
    axis -90 90 0 xyz
    dof rz rx ry
    limits( -inf , inf )
( -inf , inf )
( -inf , inf )

  end
  begin
    id 26
    name lthumb
    direction 0 0 0
    length 0
    axis 0 0 0 xyz
    dof ry rx rz
    limits( -inf , inf )
( -inf , inf )
( -inf , inf )

  end
  begin
    id 27
    name lhand
    direction 1 -1.64125e-007 -6.99514e-007
    length 1.37229
    axis -90 90 0 xyz
    dof ry rx rz
    limits( -inf , inf )
( -inf , inf )
( -inf , inf )

  end
  begin
    id 28
    name lfingers
    direction 0 0 0
    length 0
    axis 0 0 0 xyz
    dof rz ry rx
    limits( -inf , inf )
( -inf , inf )
( -inf , inf )

  end
  begin
    id 29
    name lowerneck
    direction -0.030798 0.998024 0.0547665
    length 3.93918
    axis 0 -0 0 xyz
    dof rx ry rz
    limits( -inf , inf )
( -inf , inf )
( -inf , inf )

  end
  begin
    id 30
    name upperneck
    direction 0.0531588 0.996611 -0.0627736
    length 3.95491
    axis 0 -0 0 xyz
    dof rx ry rz
    limits( -inf , inf )
( -inf , inf )
( -inf , inf )

  end
  begin
    id 31
    name head
    direction 0 0 0
    length 0
    axis 0 0 0 xyz
    dof rx ry rz
    limits( -inf , inf )
( -inf , inf )
( -inf , inf )

  end
:hierarchy
  begin
    root lfemurDummy rfemurDummy lowerbackDummy
    lfemurDummy lfemur
    lfemur ltibia
    ltibia lfoot
    lfoot ltoes
    rfemurDummy rfemur
    rfemur rtibia
    rtibia rfoot
    rfoot rtoes
    lowerbackDummy lowerback
    lowerback upperback
    upperback thorax
    thorax rclavicle lclavicle lowerneck
    rclavicle rhumerus
    rhumerus rradius
    rradius rwrist
    rwrist rthumb rhand
    rhand rfingers
    lclavicle lhumerus
    lhumerus lradius
    lradius lwrist
    lwrist lthumb lhand
    lhand lfingers
    lowerneck upperneck
    upperneck head
  end

:SAMPLES-PER-SECOND 30
:FULLY-SPECIFIED
:DEGREES
84
root  15.42755487 36.68088838 -6.573488581 -7.903999805 -57.11330032 8.750209808
lowerback  7.16989994 2.73032999 -3.509040117
upperback  4.061029911 3.266860008 -4.457399845
thorax  0.2511020005 1.572440028 -2.858740091
lowerneck  3.326590061 7.662990093 -10.5635004
upperneck  30.49889946 10.20230007 0.6962100267
head  8.510149956 3.371829987 2.522490025
lclavicle  0 -9.442270133e-015 7.951389973e-016
lhumerus  11.92930031 2.766210079 74.54239655
lradius  2.596829814e-031 -2.392763873e-031 137.3419952
lwrist  -7.062250077e-031 -0 19.06509972
lhand  -1.496451383e-031 -27.76390076 20.11240005
lfingers  90 7.125020027 -90
lthumb  89.89689403 5.08795885 91.16245106
rclavicle  0 -9.442270133e-015 7.951389973e-016
rhumerus  19.67469978 10.95689964 -73.56069946
rradius  -2.786922556e-031 2.168388043e-031 142.1150055
rwrist  1.412450015e-030 4.413906298e-032 -24.27589989
rhand  -7.920061211e-032 -33.2840004 9.303460121
rfingers  -90 -7.125020027 -90
rthumb  -92.93752616 -24.25625642 -97.11982154
rfemur  -13.1576004 8.513699532 0.6267889738
rtibia  -0 0 65.43250275
rfoot  -0 -26.5326004 -12.67809963
rtoes  5.373923086 19.29304026 -105.8922705
lfemur  -22.13120079 -5.923810005 0.3461120129
ltibia  -0 0 49.92129898
lfoot  4.571251535e-032 -15.07649994 -5.656650066
ltoes  -4.250644065 -19.5611806 -102.515957
85
root  15.52048931 36.42711189 -6.401089045 -9.246970177 -56.77590179 10.13430023
lowerback  7.053140163 2.863329887 -4.137320042
upperback  3.974730015 3.410020113 -4.41301012
thorax  0.191700995 1.633900046 -2.469690084
lowerneck  3.082999945 7.599420071 -10.80500031
upperneck  29.64450073 10.05080032 1.217640042
head  8.202670097 3.39447999 2.714459896
lclavicle  0 -9.442270133e-015 7.951389973e-016
lhumerus  11.62199974 2.002340078 75.38200378
lradius  2.589006725e-031 -2.401226398e-031 137.1549988
lwrist  -7.062250077e-031 8.827812596e-032 18.49119949
lhand  -1.496451383e-031 -27.76390076 20.11240005
lfingers  90 7.125020027 -90
lthumb  89.89689403 5.08795885 91.16245106
rclavicle  0 -9.442270133e-015 7.951389973e-016
rhumerus  18.78070068 11.73410034 -73.52279663
rradius  -2.79191033e-031 2.161962245e-031 142.246994
rwrist  7.062250077e-031 8.827812596e-032 -23.11310005
rhand  -7.920061211e-032 -33.2840004 9.303460121
rfingers  -90 -7.125020027 -90
rthumb  -92.93752616 -24.25625642 -97.11982154
rfemur  -12.66310024 8.962010384 -0.1582349986
rtibia  -0 0 65.80069733
rfoot  -0 -28.50379944 -13.40120029
rtoes  5.373923086 19.29304026 -105.8922705
lfemur  -22.58119965 -5.147809982 -0.9149519801
ltibia  -0 0 51.17029953
lfoot  4.603064895e-032 -16.48259926 -5.522089958
ltoes  -4.250644065 -19.5611806 -102.515957
86
root  15.62502253 36.18533217 -6.27035569 -10.57310009 -56.27560043 11.49909973
lowerback  7.071969986 2.968379974 -4.792210102
upperback  3.951380014 3.503720045 -4.45348978
thorax  0.1239570007 1.669939995 -2.157249928
lowerneck  2.894180059 7.47220993 -10.76850033
upperneck  28.57099915 9.843509674 1.512629986
head  7.845910072 3.410650015 2.774179935
lclavicle  0 -9.442270133e-015 7.951389973e-016
lhumerus  11.44509983 1.285670042 76.01319885
lradius  2.58686854e-031 -2.403529737e-031 137.1040039
lwrist  0 -0 17.71879959
lhand  -1.496451383e-031 -27.76390076 20.11240005
lfingers  90 7.125020027 -90
lthumb  89.89689403 5.08795885 91.16245106
rclavicle  0 -9.442270133e-015 7.951389973e-016
rhumerus  17.90410042 12.28989983 -73.68109894
rradius  -2.794399237e-031 2.158744297e-031 142.3130035
rwrist  1.412450015e-030 8.827812596e-032 -22.0060997
rhand  -7.920061211e-032 -33.2840004 9.303460121
rfingers  -90 -7.125020027 -90
rthumb  -92.93752616 -24.25625642 -97.11982154
rfemur  -12.45969963 9.432229996 -0.9716519713
rtibia  -0 0 66.47370148
rfoot  -0 -29.82220078 -14.2184
rtoes  5.373923086 19.29304026 -105.8922705
lfemur  -23.25460052 -4.662240028 -2.088140011
ltibia  -0 0 52.51309967
lfoot  4.630195714e-032 -17.58169937 -6.212560177
ltoes  -4.250644065 -19.5611806 -102.515957
87
root  15.72977802 35.96599909 -6.161155475 -11.78960037 -55.80270004 12.62390041
lowerback  7.29087019 3.028310061 -5.323239803
upperback  3.983649969 3.52677989 -4.545820236
thorax  0.01284960005 1.67256999 -1.972390056
lowerneck  2.599839926 7.366779804 -10.45600033
upperneck  27.3567009 9.700349808 1.674600005
head  7.481969833 3.476020098 2.747999907
lclavicle  0 -9.442270133e-015 7.951389973e-016
lhumerus  11.22420025 0.7107880116 76.28549957
lradius  2.586406981e-031 -2.404026407e-031 137.0930023
lwrist  -7.062250077e-031 -0 16.42180061
lhand  -1.496451383e-031 -27.76390076 20.11240005
lfingers  90 7.125020027 -90
lthumb  89.89689403 5.08795885 91.16245106
rclavicle  0 -9.442270133e-015 7.951389973e-016
rhumerus  17.12490082 12.77910042 -74.11750031
rradius  -2.795265399e-031 2.157622624e-031 142.3359985
rwrist  7.062250077e-031 -0 -21.11829948
rhand  -7.920061211e-032 -33.2840004 9.303460121
rfingers  -90 -7.125020027 -90
rthumb  -92.93752616 -24.25625642 -97.11982154
rfemur  -12.4307003 10.06130028 -1.671980023
rtibia  -0 0 67.39089966
rfoot  -0 -30.06100082 -15.55780029
rtoes  5.373923086 19.29304026 -105.8922705
lfemur  -23.86630058 -4.46807003 -3.045880079
ltibia  -0 0 53.84199905
lfoot  -0 -18.35740089 -6.947730064
ltoes  -4.250644065 -19.5611806 -102.515957
88
root  15.83235583 35.76844583 -6.054111165 -13.10379982 -55.4253006 13.60690022
lowerback  7.689370155 3.127269983 -5.638189793
upperback  4.108230114 3.599989891 -4.654290199
thorax  -0.08840250224 1.702170014 -1.935700059
lowerneck  2.029059887 7.260970116 -10.12040043
upperneck  26.4178009 9.578089714 1.953600049
head  7.256840229 3.541209936 2.777339935
lclavicle  0 -9.442270133e-015 7.951389973e-016
lhumerus  10.97039986 0.05915309861 76.41929626
lradius  2.585357396e-031 -2.405155124e-031 137.0679932
lwrist  -1.412450015e-030 -0 14.82380009
lhand  -1.496451383e-031 -27.76390076 20.11240005
lfingers  90 7.125020027 -90
lthumb  89.89689403 5.08795885 91.16245106
rclavicle  0 -9.442270133e-015 7.951389973e-016
rhumerus  16.34770012 13.08320045 -74.58309937
rradius  -2.79707214e-031 2.155279908e-031 142.3840027
rwrist  7.062250077e-031 8.827812596e-032 -20.41600037
rhand  -7.920061211e-032 -33.2840004 9.303460121
rfingers  -90 -7.125020027 -90
rthumb  -92.93752616 -24.25625642 -97.11982154
rfemur  -12.31890011 10.82320023 -2.345760107
rtibia  -0 0 68.41750336
rfoot  -0 -29.87319946 -16.48929977
rtoes  5.373923086 19.29304026 -105.8922705
lfemur  -24.16180038 -4.44246006 -3.860209942
ltibia  -0 0 55.08509827
lfoot  -0 -18.87879944 -7.390719891
ltoes  -4.250644065 -19.5611806 -102.515957
89
root  15.93784422 35.59955687 -5.943599836 -14.17679977 -55.1413002 14.15890026
lowerback  8.142089844 3.215699911 -5.570310116
upperback  4.288239956 3.686310053 -4.65982008
thorax  -0.1465979964 1.743450046 -2.006839991
lowerneck  1.856490016 7.284039974 -9.887700081
upperneck  25.03899956 9.60861969 2.039829969
head  6.824329853 3.673769951 2.732239962
lclavicle  0 -9.442270133e-015 7.951389973e-016
lhumerus  10.7816 -0.2729290128 76.55789948
lradius  2.582333328e-031 -2.408401673e-031 136.9960022
lwrist  -7.062250077e-031 -0 13.50039959
lhand  -1.496451383e-031 -27.76390076 20.11240005
lfingers  90 7.125020027 -90
lthumb  89.89689403 5.08795885 91.16245106
rclavicle  0 -9.442270133e-015 7.951389973e-016
rhumerus  15.66790009 13.51379967 -74.93049622
rradius  -2.791985753e-031 2.161864841e-031 142.2489929
rwrist  1.412450015e-030 -0 -19.61619949
rhand  -7.920061211e-032 -33.2840004 9.303460121
rfingers  -90 -7.125020027 -90
rthumb  -92.93752616 -24.25625642 -97.11982154
rfemur  -12.1548996 11.51270008 -2.80795002
rtibia  -0 0 69.43090057
rfoot  -0 -29.73699951 -16.54920006
rtoes  5.373923086 19.29304026 -105.8922705
lfemur  -24.2553997 -4.589449883 -4.343860149
ltibia  -0 0 56.20959854
lfoot  -0 -19.21929932 -7.979720116
ltoes  -4.250644065 -19.5611806 -102.515957
